<?xml version="1.0" standalone="no"?><!DOCTYPE svg PUBLIC "-//W3C//DTD SVG 1.1//EN" "http://www.w3.org/Graphics/SVG/1.1/DTD/svg11.dtd"><svg t="1716700719448" class="icon" viewBox="0 0 1024 1024" version="1.1" xmlns="http://www.w3.org/2000/svg" p-id="4823" xmlns:xlink="http://www.w3.org/1999/xlink" width="200" height="200"><path d="M78.019048 819.2C48.761905 819.2 19.504762 843.580952 19.504762 877.714286s24.380952 58.514286 58.514286 58.514285c29.257143 0 58.514286-24.380952 58.514285-58.514285-4.87619-34.133333-29.257143-58.514286-58.514285-58.514286zM897.219048 633.904762l-78.019048-146.285714c0-9.752381-4.87619-14.628571-4.87619-24.380953l78.019047-102.4-39.009524-29.257143L770.438095 438.857143c-14.628571 0-29.257143 9.752381-39.009524 24.380952h-102.4c-9.752381-24.380952-34.133333-39.009524-63.390476-39.009524l-53.638095-92.647619c4.87619-9.752381 14.628571-19.504762 14.628571-34.133333 0-14.628571-4.87619-24.380952-9.752381-34.133333l87.771429-112.152381-39.009524-29.257143-97.523809 121.904762h-4.876191c-19.504762 0-39.009524 9.752381-48.761905 24.380952H238.933333c-4.87619-9.752381-19.504762-14.628571-34.133333-14.628571-24.380952 0-48.761905 19.504762-48.761905 48.761905 0 14.628571 4.87619 29.257143 19.504762 34.133333L117.028571 443.733333c-24.380952 9.752381-39.009524 29.257143-39.009523 53.638096 0 29.257143 24.380952 53.638095 48.761904 58.514285l48.761905 82.895238c-9.752381 9.752381-19.504762 19.504762-19.504762 34.133334 0 14.628571 4.87619 24.380952 14.628572 34.133333l-73.142857 97.52381 39.009523 29.257142 87.771429-117.028571c4.87619 0 4.87619-4.87619 4.87619-4.87619h180.419048c9.752381 9.752381 24.380952 19.504762 39.009524 19.504761l58.514286 102.4c-9.752381 9.752381-19.504762 24.380952-19.504762 43.885715 0 34.133333 24.380952 58.514286 58.514285 58.514285 19.504762 0 34.133333-9.752381 43.885715-19.504761h180.419047c0 24.380952 19.504762 48.761905 48.761905 48.761904 24.380952 0 48.761905-19.504762 48.761905-48.761904 0-19.504762-14.628571-39.009524-34.133334-43.885715l68.266667-121.904762c29.257143-4.87619 48.761905-29.257143 48.761905-53.638095-4.87619-39.009524-24.380952-63.390476-53.638095-63.390476z m-43.885715 97.523809L780.190476 863.085714h-175.542857c-4.87619-24.380952-24.380952-39.009524-43.885714-43.885714L487.619048 702.171429c0-4.87619 4.87619-9.752381 4.87619-14.628572V682.666667l63.390476-112.152381h9.752381c34.133333 0 63.390476-24.380952 68.266667-58.514286h102.4c9.752381 9.752381 19.504762 19.504762 39.009524 19.504762 4.87619 0 9.752381 0 14.628571-4.876191l68.266667 112.152381c-9.752381 9.752381-19.504762 24.380952-19.504762 43.885715-4.87619 24.380952 0 39.009524 14.628571 48.761904z m-360.838095-229.180952c0 14.628571 4.87619 34.133333 14.628572 43.885714l-58.514286 102.4c-14.628571 0-24.380952 9.752381-34.133334 19.504762H253.561905c-4.87619-9.752381-9.752381-19.504762-19.504762-29.257143l-53.638095-97.523809c9.752381-9.752381 14.628571-24.380952 14.628571-39.009524 0-19.504762-9.752381-34.133333-24.380952-43.885714L229.180952 341.333333c9.752381-4.87619 14.628571-14.628571 19.504762-19.504762h156.038096c9.752381 19.504762 34.133333 34.133333 58.514285 34.133334l53.638095 87.771428c-14.628571 14.628571-24.380952 34.133333-24.380952 58.514286zM936.228571 204.8c-39.009524 0-73.142857 34.133333-73.142857 73.142857s34.133333 73.142857 73.142857 73.142857 73.142857-34.133333 73.142858-73.142857-34.133333-73.142857-73.142858-73.142857zM614.4 136.533333c19.504762 0 34.133333-14.628571 34.133333-34.133333 0-19.504762-14.628571-34.133333-34.133333-34.133333s-34.133333 14.628571-34.133333 34.133333c-4.87619 19.504762 9.752381 34.133333 34.133333 34.133333z" fill="#d81e06" p-id="4824"></path><path d="M375.466667 336.457143H302.32381c-9.752381 0-14.628571 4.87619-14.628572 9.752381s4.87619 14.628571 14.628572 14.628571h73.142857c9.752381 0 14.628571-4.87619 14.628571-14.628571s-4.87619-9.752381-14.628571-9.752381zM219.428571 531.504762c-4.87619-4.87619-14.628571-9.752381-19.504761-4.876191-4.87619 4.87619-4.87619 14.628571 0 19.504762l39.009523 58.514286c4.87619 4.87619 4.87619 4.87619 9.752381 4.876191h4.876191c4.87619-4.87619 9.752381-14.628571 4.87619-19.504762l-39.009524-58.514286zM780.190476 560.761905c-4.87619-4.87619-9.752381-9.752381-19.504762-4.876191-4.87619 4.87619-9.752381 9.752381-4.87619 19.504762l34.133333 63.390476c4.87619 4.87619 4.87619 4.87619 9.752381 4.876191h4.876191c4.87619-4.87619 9.752381-9.752381 4.87619-19.504762l-29.257143-63.390476zM565.638095 604.647619l-34.133333 63.390476c-4.87619 4.87619 0 14.628571 4.87619 19.504762h4.876191c4.87619 0 9.752381 0 9.752381-4.87619l34.133333-63.390477c4.87619-4.87619 0-14.628571-4.87619-19.504761-4.87619-4.87619-14.628571 0-14.628572 4.87619zM721.67619 828.952381h-73.142857c-9.752381 0-14.628571 4.87619-14.628571 14.628571s4.87619 14.628571 14.628571 14.628572h73.142857c9.752381 0 14.628571-4.87619 14.628572-14.628572s-9.752381-14.628571-14.628572-14.628571zM375.466667 624.152381H302.32381c-9.752381 0-14.628571 4.87619-14.628572 14.628571s4.87619 14.628571 14.628572 14.628572h73.142857c9.752381 0 14.628571-4.87619 14.628571-14.628572s-4.87619-14.628571-14.628571-14.628571z" fill="#d81e06" p-id="4825"></path></svg>